<svg width="105" height="78" viewBox="0 0 105 78" fill="none" xmlns="http://www.w3.org/2000/svg">
<g filter="url(#filter0_d_2_27)">
<path d="M11.2316 16.2363C10.571 16.3059 10.0495 16.4797 9.73656 16.584C9.63225 16.6188 9.59749 16.6535 9.52795 16.6883C9.52795 16.6883 9.52795 16.6883 9.52795 16.7231C9.70179 17.0012 10.119 17.4532 10.7448 17.9399L20.8274 25.7626C21.5575 26.3537 22.2529 27.0143 22.9135 27.7444L78.9241 7.33582L11.2316 16.2363Z" fill="white"/>
<path d="M43.913 42.9729L53.8565 50.448C54.9343 51.2824 56.2207 51.6648 57.4724 51.6648C58.4111 51.6648 59.3151 51.4562 60.1495 51.039C60.9839 50.6218 61.714 50.0308 62.3398 49.2311L89.9105 12.1341L43.322 42.5905C43.4958 42.7296 43.7044 42.8339 43.913 42.9729Z" fill="white"/>
<path d="M40.6105 47.319C39.637 46.5889 38.8026 46.3455 38.1768 46.3455C37.5857 46.3455 37.1685 46.5194 36.7165 46.9018C36.2645 47.2842 35.8126 47.9796 35.4996 49.0574L32.6835 59.3834L44.8521 50.4829L40.6105 47.319Z" fill="#96C9E4"/>
<path d="M26.4946 32.2648L26.1817 32.3691C27.0857 34.0379 27.8158 35.8111 28.3026 37.5842C28.7198 39.114 28.9631 40.6438 28.9631 42.1388L29.0327 52.0823L30.2495 47.6321C30.7363 45.8589 31.6055 44.3291 32.8223 43.147L34.213 42.0345C34.2478 41.9997 34.2826 41.9997 34.3173 41.9649L36.8206 40.3309L77.8116 13.5598L26.4946 32.2648Z" fill="#CFE1EF"/>
<path d="M99.5066 2.99001C99.2284 2.43373 98.846 1.94698 98.4288 1.56454C97.7682 0.973492 97.0033 0.556281 96.2037 0.347676C95.404 0.104303 94.5696 0 93.7004 0C93.1441 0 92.5878 0.0347739 92.0315 0.104309L10.5711 10.8127C9.73666 10.917 8.937 11.0909 8.20688 11.3342C7.12908 11.7167 6.12082 12.273 5.32117 13.1074C4.90396 13.5246 4.59105 14.0461 4.34768 14.6372C4.1043 15.1934 4 15.8193 4 16.4451C4 17.0361 4.10431 17.6272 4.31291 18.1835C4.59105 18.9831 5.04303 19.7132 5.56454 20.3738C6.08606 21.0344 6.74664 21.6254 7.47676 22.2165L17.5594 30.0392C18.2895 30.5955 19.0544 31.3951 19.7845 32.3339C20.8623 33.7593 21.8358 35.4977 22.4964 37.2361C23.1569 38.9745 23.5394 40.7476 23.5394 42.1383L23.6785 62.9293C23.6785 63.5899 23.7132 64.2157 23.748 64.772C23.7828 65.1892 23.8175 65.5717 23.8871 65.9193C23.9218 66.1975 23.9914 66.4409 24.0609 66.719C24.1652 67.1362 24.3043 67.5534 24.6867 68.0749C24.8606 68.3531 25.1387 68.6312 25.5559 68.9094C25.9731 69.1875 26.5642 69.3613 27.1552 69.3613C27.8158 69.3613 28.3721 69.1527 28.7545 68.9094C28.8241 68.8746 28.8588 68.8398 28.8936 68.805L28.9284 68.8398L49.4065 53.855L50.5886 54.7589C52.6399 56.3235 55.1084 57.0536 57.5073 57.0536C59.2457 57.0536 61.0188 56.6712 62.5834 55.8715C64.1827 55.1066 65.6082 53.9245 66.7207 52.4295L98.0463 10.326C98.6374 9.52632 99.1241 8.6919 99.4718 7.85748C99.8195 7.02305 100.028 6.15386 100.028 5.21514C100.028 4.51979 99.8542 3.72013 99.5066 2.99001ZM60.1497 51.0388C59.3152 51.456 58.3765 51.6646 57.4726 51.6646C56.1862 51.6646 54.9345 51.2822 53.8567 50.4478L43.9132 42.9727C43.7394 42.8337 43.5307 42.7294 43.3221 42.5903L89.9107 12.1339L62.34 49.2309C61.749 50.0306 60.9841 50.6216 60.1497 51.0388ZM28.9631 42.1383C28.9631 40.6433 28.7198 39.1135 28.3025 37.5838C27.8158 35.8106 27.0857 34.0375 26.1817 32.3686L26.4946 32.2643L77.8116 13.5594L36.8206 40.3652L34.3173 41.9992L34.213 42.0688L32.8223 43.1813C31.6055 44.3634 30.7363 45.8932 30.2495 47.6664L29.0327 52.1166L28.9631 42.1383ZM20.8623 25.7628L10.7797 17.9401C10.1539 17.4533 9.73665 17.0014 9.56281 16.7232C9.56281 16.7232 9.56281 16.7232 9.56281 16.6884C9.63235 16.6537 9.66712 16.6189 9.77142 16.5841C10.0843 16.4451 10.6058 16.306 11.2664 16.2365L78.9937 7.33596L22.9831 27.7445C22.2878 27.0492 21.5924 26.3538 20.8623 25.7628ZM32.6833 59.383L35.4994 49.0571C35.8123 47.9793 36.2643 47.2839 36.7163 46.9015C37.1683 46.519 37.6203 46.3452 38.1765 46.3452C38.8024 46.3452 39.6368 46.5886 40.6103 47.3187L44.8172 50.4825L32.6833 59.383Z" fill="url(#paint0_linear_2_27)"/>
</g>
<defs>
<filter id="filter0_d_2_27" x="0" y="0" width="104.028" height="77.3613" filterUnits="userSpaceOnUse" color-interpolation-filters="sRGB">
<feFlood flood-opacity="0" result="BackgroundImageFix"/>
<feColorMatrix in="SourceAlpha" type="matrix" values="0 0 0 0 0 0 0 0 0 0 0 0 0 0 0 0 0 0 127 0" result="hardAlpha"/>
<feOffset dy="4"/>
<feGaussianBlur stdDeviation="2"/>
<feComposite in2="hardAlpha" operator="out"/>
<feColorMatrix type="matrix" values="0 0 0 0 0 0 0 0 0 0 0 0 0 0 0 0 0 0 0.25 0"/>
<feBlend mode="normal" in2="BackgroundImageFix" result="effect1_dropShadow_2_27"/>
<feBlend mode="normal" in="SourceGraphic" in2="effect1_dropShadow_2_27" result="shape"/>
</filter>
<linearGradient id="paint0_linear_2_27" x1="6.02876" y1="-2.20255e-05" x2="99.1571" y2="7.41172" gradientUnits="userSpaceOnUse">
<stop offset="0.206287" stop-color="#4F9CFF"/>
<stop offset="0.940271" stop-color="#A483E2"/>
</linearGradient>
</defs>
</svg>
